<?xml version="1.0" encoding="UTF-8"?>
<!DOCTYPE svg PUBLIC "-//W3C//DTD SVG 1.1//EN" "http://www.w3.org/Graphics/SVG/1.1/DTD/svg11.dtd">
<svg xmlns="http://www.w3.org/2000/svg" version="1.1" width="512px" height="512px" style="shape-rendering:geometricPrecision; text-rendering:geometricPrecision; image-rendering:optimizeQuality; fill-rule:evenodd; clip-rule:evenodd" xmlns:xlink="http://www.w3.org/1999/xlink">
<g><path style="opacity:0.981" fill="#000000" d="M 247.5,-0.5 C 253.5,-0.5 259.5,-0.5 265.5,-0.5C 283.094,3.57768 295.427,14.0777 302.5,31C 315.833,31.3333 329.167,31.6667 342.5,32C 347,33.8333 350.167,37 352,41.5C 352.5,48.8258 352.666,56.1591 352.5,63.5C 371.836,63.3334 391.17,63.5 410.5,64C 430.333,69.1667 442.833,81.6667 448,101.5C 448.667,225.5 448.667,349.5 448,473.5C 442.651,493.348 430.151,506.015 410.5,511.5C 307.833,511.5 205.167,511.5 102.5,511.5C 82.8488,506.015 70.3488,493.348 65,473.5C 64.3333,349.5 64.3333,225.5 65,101.5C 70.1667,81.6667 82.6667,69.1667 102.5,64C 121.83,63.5 141.164,63.3334 160.5,63.5C 160.334,56.1591 160.5,48.8258 161,41.5C 162.833,37 166,33.8333 170.5,32C 183.833,31.6667 197.167,31.3333 210.5,31C 217.545,14.1099 229.878,3.60991 247.5,-0.5 Z M 251.5,32.5 C 260.587,30.9592 267.087,34.2926 271,42.5C 271.591,47.7274 272.924,52.7274 275,57.5C 276.938,60.1059 279.438,61.9392 282.5,63C 294.78,64.3943 307.114,64.8943 319.5,64.5C 319.5,74.8333 319.5,85.1667 319.5,95.5C 277.167,95.5 234.833,95.5 192.5,95.5C 192.5,85.1667 192.5,74.8333 192.5,64.5C 203.505,64.6665 214.505,64.4998 225.5,64C 232.566,63.5531 237.399,60.0531 240,53.5C 239.719,44.0478 243.553,37.0478 251.5,32.5 Z M 107.5,96.5 C 125.167,96.5 142.833,96.5 160.5,96.5C 160.334,103.508 160.5,110.508 161,117.5C 162.833,122 166,125.167 170.5,127C 198.961,128.146 227.461,128.646 256,128.5C 284.866,128.642 313.7,128.142 342.5,127C 347,125.167 350.167,122 352,117.5C 352.5,110.508 352.666,103.508 352.5,96.5C 370.17,96.3334 387.836,96.5001 405.5,97C 410,98.8333 413.167,102 415,106.5C 415.667,227.167 415.667,347.833 415,468.5C 412.399,475.053 407.566,478.553 400.5,479C 304.5,479.667 208.5,479.667 112.5,479C 105.434,478.553 100.601,475.053 98,468.5C 96.3429,349.535 96.0096,230.535 97,111.5C 97.6261,104.391 101.126,99.3906 107.5,96.5 Z"/></g>
<g><path style="opacity:0.965" fill="#000000" d="M 154.5,191.5 C 222.501,191.333 290.501,191.5 358.5,192C 367.482,196.473 370.649,203.64 368,213.5C 365.138,220.351 359.971,223.851 352.5,224C 288.167,224.667 223.833,224.667 159.5,224C 147.027,221.575 142.194,214.075 145,201.5C 147.022,196.98 150.189,193.647 154.5,191.5 Z"/></g>
<g><path style="opacity:0.965" fill="#000000" d="M 154.5,287.5 C 222.501,287.333 290.501,287.5 358.5,288C 367.482,292.473 370.649,299.64 368,309.5C 365.138,316.351 359.971,319.851 352.5,320C 288.167,320.667 223.833,320.667 159.5,320C 147.027,317.575 142.194,310.075 145,297.5C 147.022,292.98 150.189,289.647 154.5,287.5 Z"/></g>
<g><path style="opacity:0.992" fill="#000000" d="M 154.5,383.5 C 222.501,383.333 290.501,383.5 358.5,384C 367.482,388.473 370.649,395.64 368,405.5C 366.167,410 363,413.167 358.5,415C 290.5,415.667 222.5,415.667 154.5,415C 147.513,412.193 144.18,407.027 144.5,399.5C 144.302,391.885 147.635,386.551 154.5,383.5 Z"/></g>
</svg>
