<?xml version="1.0" encoding="UTF-8"?>
<!DOCTYPE svg PUBLIC "-//W3C//DTD SVG 1.1//EN" "http://www.w3.org/Graphics/SVG/1.1/DTD/svg11.dtd">
<svg xmlns="http://www.w3.org/2000/svg" version="1.1" width="500px" height="500px" style="shape-rendering:geometricPrecision; text-rendering:geometricPrecision; image-rendering:optimizeQuality; fill-rule:evenodd; clip-rule:evenodd" xmlns:xlink="http://www.w3.org/1999/xlink">
<g><path style="opacity:0.078" fill="#fdf2de" d="M 281.5,92.5 C 279.784,92.3713 278.117,92.038 276.5,91.5C 274.883,90.962 273.216,90.6287 271.5,90.5C 258.583,85.783 245.583,85.4497 232.5,89.5C 232.167,89.5 231.833,89.5 231.5,89.5C 225.083,91.0826 218.75,93.0826 212.5,95.5C 227.748,86.0331 244.415,82.8664 262.5,86C 268.584,87.3543 274.584,89.021 280.5,91C 281.056,91.3826 281.389,91.8826 281.5,92.5 Z"/></g>
<g><path style="opacity:0.914" fill="#d8ab69" d="M 271.5,90.5 C 262.29,88.8763 252.956,88.2097 243.5,88.5C 239.802,88.5524 236.135,88.8857 232.5,89.5C 245.583,85.4497 258.583,85.783 271.5,90.5 Z"/></g>
<g><path style="opacity:1" fill="#e7a649" d="M 243.5,88.5 C 237.093,90.177 230.427,91.8437 223.5,93.5C 226.068,92.0441 228.734,90.7108 231.5,89.5C 231.833,89.5 232.167,89.5 232.5,89.5C 236.135,88.8857 239.802,88.5524 243.5,88.5 Z"/></g>
<g><path style="opacity:1" fill="#fbab3b" d="M 243.5,88.5 C 252.956,88.2097 262.29,88.8763 271.5,90.5C 273.216,90.6287 274.883,90.962 276.5,91.5C 277.659,93.2503 279.326,94.2503 281.5,94.5C 285.164,97.3346 289.164,99.668 293.5,101.5C 294.492,101.328 295.158,101.662 295.5,102.5C 297.317,104.012 298.317,106.012 298.5,108.5C 301.553,108.572 304.219,109.572 306.5,111.5C 307.488,112.795 308.488,114.128 309.5,115.5C 310.08,117.749 311.413,119.415 313.5,120.5C 313.857,124.263 314.69,127.93 316,131.5C 317.113,132.305 318.279,132.972 319.5,133.5C 319.833,133.5 320.167,133.5 320.5,133.5C 322.703,143.719 324.37,154.052 325.5,164.5C 325.032,174.334 324.032,184 322.5,193.5C 322.5,194.167 322.167,194.5 321.5,194.5C 319.61,196.59 317.943,198.923 316.5,201.5C 315.253,203.323 314.586,205.323 314.5,207.5C 312.556,211.11 310.223,214.443 307.5,217.5C 305.178,218.802 303.845,220.802 303.5,223.5C 300.809,227.185 298.142,230.852 295.5,234.5C 292.833,237.5 290.167,240.5 287.5,243.5C 284.687,244.446 283.354,246.446 283.5,249.5C 282.178,249.67 281.011,249.337 280,248.5C 278.193,250.74 278.026,253.073 279.5,255.5C 277.774,257.228 276.441,259.228 275.5,261.5C 272.22,264.043 269.387,267.043 267,270.5C 266.517,271.448 266.351,272.448 266.5,273.5C 261.825,279.53 257.158,285.53 252.5,291.5C 248.705,290.556 245.871,288.223 244,284.5C 242.871,282.859 241.371,281.859 239.5,281.5C 237.225,276.722 234.725,272.055 232,267.5C 230.67,266.418 229.17,265.751 227.5,265.5C 227.5,265.167 227.5,264.833 227.5,264.5C 227.167,262.5 226.833,260.5 226.5,258.5C 225.5,258.5 224.5,258.5 223.5,258.5C 223.5,256.167 223.5,253.833 223.5,251.5C 221.5,251.5 219.5,251.5 217.5,251.5C 215.122,249.122 213.122,246.455 211.5,243.5C 210.235,240.537 208.902,237.537 207.5,234.5C 201.974,227.606 196.308,220.94 190.5,214.5C 189.931,211.281 188.264,208.948 185.5,207.5C 185.657,204.656 184.324,202.989 181.5,202.5C 181.5,202.167 181.5,201.833 181.5,201.5C 180.895,198.873 180.395,196.207 180,193.5C 179.311,192.643 178.478,191.977 177.5,191.5C 176.743,188.63 175.743,185.964 174.5,183.5C 173.893,174.513 173.56,165.513 173.5,156.5C 173.5,156.167 173.5,155.833 173.5,155.5C 175.136,151.79 175.802,147.79 175.5,143.5C 175.232,141.901 175.566,140.568 176.5,139.5C 180.145,135.166 182.478,130.166 183.5,124.5C 185.861,122.806 187.861,120.806 189.5,118.5C 191.467,118.739 193.301,118.406 195,117.5C 195.44,115.134 195.94,112.801 196.5,110.5C 198.5,108.167 200.5,105.833 202.5,103.5C 206.457,104.027 208.79,102.361 209.5,98.5C 214.122,96.8473 218.788,95.1806 223.5,93.5C 230.427,91.8437 237.093,90.177 243.5,88.5 Z M 247.5,132.5 C 251.86,133.007 256.193,133.673 260.5,134.5C 262.808,135.793 265.142,137.126 267.5,138.5C 267.842,139.338 268.508,139.672 269.5,139.5C 275.188,144.837 279.188,151.17 281.5,158.5C 281.59,160.696 281.923,162.863 282.5,165C 281.574,169.204 280.574,173.371 279.5,177.5C 277.336,179.822 275.669,182.489 274.5,185.5C 272.5,185.5 271.5,186.5 271.5,188.5C 258.249,198.548 244.583,199.048 230.5,190C 213.56,173.242 213.56,156.575 230.5,140C 233.564,138.141 236.564,136.308 239.5,134.5C 242.428,134.435 245.095,133.768 247.5,132.5 Z"/></g>
<g><path style="opacity:0.82" fill="#dbb27c" d="M 276.5,91.5 C 278.117,92.038 279.784,92.3713 281.5,92.5C 281.5,93.1667 281.5,93.8333 281.5,94.5C 279.326,94.2503 277.659,93.2503 276.5,91.5 Z"/></g>
<g><path style="opacity:1" fill="#d4a566" d="M 231.5,89.5 C 228.734,90.7108 226.068,92.0441 223.5,93.5C 218.788,95.1806 214.122,96.8473 209.5,98.5C 210.694,97.7281 211.694,96.7281 212.5,95.5C 218.75,93.0826 225.083,91.0826 231.5,89.5 Z"/></g>
<g><path style="opacity:0.137" fill="#fcf1de" d="M 212.5,95.5 C 211.694,96.7281 210.694,97.7281 209.5,98.5C 208.833,98.5 208.167,98.5 207.5,98.5C 208.659,96.7497 210.326,95.7497 212.5,95.5 Z"/></g>
<g><path style="opacity:0.949" fill="#d6a358" d="M 281.5,94.5 C 286.132,95.8139 290.132,98.1472 293.5,101.5C 289.164,99.668 285.164,97.3346 281.5,94.5 Z"/></g>
<g><path style="opacity:0.322" fill="#f7e9cf" d="M 207.5,98.5 C 206.027,100.395 204.36,102.061 202.5,103.5C 201.391,103.557 200.391,103.89 199.5,104.5C 199.414,103.504 199.748,102.671 200.5,102C 202.886,100.807 205.22,99.6401 207.5,98.5 Z"/></g>
<g><path style="opacity:1" fill="#dfa85d" d="M 207.5,98.5 C 208.167,98.5 208.833,98.5 209.5,98.5C 208.79,102.361 206.457,104.027 202.5,103.5C 204.36,102.061 206.027,100.395 207.5,98.5 Z"/></g>
<g><path style="opacity:0.329" fill="#f9e3c7" d="M 281.5,92.5 C 294.9,97.9096 305.567,106.576 313.5,118.5C 312.167,117.5 310.833,116.5 309.5,115.5C 308.488,114.128 307.488,112.795 306.5,111.5C 303.149,108.152 299.482,105.152 295.5,102.5C 295.158,101.662 294.492,101.328 293.5,101.5C 290.132,98.1472 286.132,95.8139 281.5,94.5C 281.5,93.8333 281.5,93.1667 281.5,92.5 Z"/></g>
<g><path style="opacity:1" fill="#e2a954" d="M 295.5,102.5 C 299.482,105.152 303.149,108.152 306.5,111.5C 304.219,109.572 301.553,108.572 298.5,108.5C 298.317,106.012 297.317,104.012 295.5,102.5 Z"/></g>
<g><path style="opacity:0.961" fill="#d9a961" d="M 202.5,103.5 C 200.5,105.833 198.5,108.167 196.5,110.5C 195.395,111.6 194.062,112.267 192.5,112.5C 194.833,109.833 197.167,107.167 199.5,104.5C 200.391,103.89 201.391,103.557 202.5,103.5 Z"/></g>
<g><path style="opacity:0.486" fill="#f8e0c0" d="M 199.5,104.5 C 197.167,107.167 194.833,109.833 192.5,112.5C 191.833,112.833 191.167,113.167 190.5,113.5C 192.5,109.5 195.5,106.5 199.5,104.5 Z"/></g>
<g><path style="opacity:0.98" fill="#dfa765" d="M 309.5,115.5 C 310.833,116.5 312.167,117.5 313.5,118.5C 313.5,119.167 313.5,119.833 313.5,120.5C 311.413,119.415 310.08,117.749 309.5,115.5 Z"/></g>
<g><path style="opacity:0.251" fill="#f7e8cf" d="M 190.5,113.5 C 189.89,114.391 189.557,115.391 189.5,116.5C 187.016,118.8 185.016,121.467 183.5,124.5C 182.833,124.833 182.167,125.167 181.5,125.5C 183.551,120.707 186.551,116.707 190.5,113.5 Z"/></g>
<g><path style="opacity:0.969" fill="#d5a863" d="M 189.5,116.5 C 189.5,117.167 189.5,117.833 189.5,118.5C 187.861,120.806 185.861,122.806 183.5,124.5C 185.016,121.467 187.016,118.8 189.5,116.5 Z"/></g>
<g><path style="opacity:1" fill="#f1a949" d="M 196.5,110.5 C 195.94,112.801 195.44,115.134 195,117.5C 193.301,118.406 191.467,118.739 189.5,118.5C 189.5,117.833 189.5,117.167 189.5,116.5C 189.557,115.391 189.89,114.391 190.5,113.5C 191.167,113.167 191.833,112.833 192.5,112.5C 194.062,112.267 195.395,111.6 196.5,110.5 Z"/></g>
<g><path style="opacity:1" fill="#edaa4b" d="M 313.5,120.5 C 315.4,122.619 317.066,124.953 318.5,127.5C 318.517,129.565 318.85,131.565 319.5,133.5C 318.279,132.972 317.113,132.305 316,131.5C 314.69,127.93 313.857,124.263 313.5,120.5 Z"/></g>
<g><path style="opacity:0.231" fill="#feefd9" d="M 313.5,118.5 C 322.966,128.872 327.966,141.206 328.5,155.5C 328.167,155.5 327.833,155.5 327.5,155.5C 327.54,150.322 326.207,145.656 323.5,141.5C 323.585,138.351 322.585,135.684 320.5,133.5C 320.741,131.102 320.074,129.102 318.5,127.5C 317.066,124.953 315.4,122.619 313.5,120.5C 313.5,119.833 313.5,119.167 313.5,118.5 Z"/></g>
<g><path style="opacity:0.91" fill="#edb258" d="M 266.5,134.5 C 265.833,134.5 265.167,134.5 264.5,134.5C 263.167,134.5 261.833,134.5 260.5,134.5C 255.402,131.591 250.069,130.925 244.5,132.5C 243.833,132.5 243.167,132.5 242.5,132.5C 244.223,131.2 246.39,130.533 249,130.5C 251.167,130.667 253.333,130.833 255.5,131C 259.586,131.594 263.252,132.761 266.5,134.5 Z"/></g>
<g><path style="opacity:1" fill="#ddaa64" d="M 183.5,124.5 C 182.478,130.166 180.145,135.166 176.5,139.5C 178.147,134.844 179.813,130.177 181.5,125.5C 182.167,125.167 182.833,124.833 183.5,124.5 Z"/></g>
<g><path style="opacity:0.886" fill="#eebf71" d="M 242.5,132.5 C 241.5,133.167 240.5,133.833 239.5,134.5C 238.5,134.5 237.5,134.5 236.5,134.5C 237.99,132.72 239.99,132.054 242.5,132.5 Z"/></g>
<g><path style="opacity:0.929" fill="#e2b26b" d="M 318.5,127.5 C 320.074,129.102 320.741,131.102 320.5,133.5C 320.167,133.5 319.833,133.5 319.5,133.5C 318.85,131.565 318.517,129.565 318.5,127.5 Z"/></g>
<g><path style="opacity:0.051" fill="#fbefd7" d="M 181.5,125.5 C 179.813,130.177 178.147,134.844 176.5,139.5C 175.566,140.568 175.232,141.901 175.5,143.5C 174.232,145.905 173.565,148.572 173.5,151.5C 172.833,152.833 172.167,154.167 171.5,155.5C 171.914,146.418 174.081,137.752 178,129.5C 178.949,127.907 180.115,126.574 181.5,125.5 Z"/></g>
<g><path style="opacity:0.106" fill="#fff7e2" d="M 242.5,132.5 C 243.167,132.5 243.833,132.5 244.5,132.5C 245.5,132.5 246.5,132.5 247.5,132.5C 245.095,133.768 242.428,134.435 239.5,134.5C 240.5,133.833 241.5,133.167 242.5,132.5 Z"/></g>
<g><path style="opacity:0.075" fill="#fde7cb" d="M 244.5,132.5 C 250.069,130.925 255.402,131.591 260.5,134.5C 256.193,133.673 251.86,133.007 247.5,132.5C 246.5,132.5 245.5,132.5 244.5,132.5 Z"/></g>
<g><path style="opacity:0.914" fill="#efc481" d="M 264.5,134.5 C 265.167,134.5 265.833,134.5 266.5,134.5C 267.861,136.527 269.527,138.194 271.5,139.5C 270.833,139.5 270.167,139.5 269.5,139.5C 268.508,139.672 267.842,139.338 267.5,138.5C 266.5,137.167 265.5,135.833 264.5,134.5 Z"/></g>
<g><path style="opacity:0.137" fill="#ffeecc" d="M 260.5,134.5 C 261.833,134.5 263.167,134.5 264.5,134.5C 265.5,135.833 266.5,137.167 267.5,138.5C 265.142,137.126 262.808,135.793 260.5,134.5 Z"/></g>
<g><path style="opacity:0.945" fill="#deaf67" d="M 271.5,139.5 C 275.236,140.905 277.569,143.571 278.5,147.5C 276.196,144.859 273.862,142.192 271.5,139.5 Z"/></g>
<g><path style="opacity:0.173" fill="#fcebcf" d="M 269.5,139.5 C 270.167,139.5 270.833,139.5 271.5,139.5C 273.862,142.192 276.196,144.859 278.5,147.5C 278.833,148.167 279.167,148.833 279.5,149.5C 280.455,151.746 281.122,154.079 281.5,156.5C 281.5,157.167 281.5,157.833 281.5,158.5C 279.188,151.17 275.188,144.837 269.5,139.5 Z"/></g>
<g><path style="opacity:0.882" fill="#efb35d" d="M 224.5,143.5 C 222.035,146.614 220.035,149.947 218.5,153.5C 218.498,148.818 220.498,145.485 224.5,143.5 Z"/></g>
<g><path style="opacity:1" fill="#dda758" d="M 175.5,143.5 C 175.802,147.79 175.136,151.79 173.5,155.5C 173.5,154.167 173.5,152.833 173.5,151.5C 173.565,148.572 174.232,145.905 175.5,143.5 Z"/></g>
<g><path style="opacity:1" fill="#f1ab48" d="M 320.5,133.5 C 322.585,135.684 323.585,138.351 323.5,141.5C 326.624,155.355 327.291,169.355 325.5,183.5C 325.5,184.167 325.5,184.833 325.5,185.5C 323.926,187.102 323.259,189.102 323.5,191.5C 323.672,192.492 323.338,193.158 322.5,193.5C 324.032,184 325.032,174.334 325.5,164.5C 324.37,154.052 322.703,143.719 320.5,133.5 Z"/></g>
<g><path style="opacity:0.992" fill="#e7b064" d="M 323.5,141.5 C 326.207,145.656 327.54,150.322 327.5,155.5C 327.5,161.833 327.5,168.167 327.5,174.5C 327.324,177.727 326.657,180.727 325.5,183.5C 327.291,169.355 326.624,155.355 323.5,141.5 Z"/></g>
<g><path style="opacity:0.976" fill="#e0a754" d="M 173.5,156.5 C 173.56,165.513 173.893,174.513 174.5,183.5C 173.755,180.61 173.088,177.61 172.5,174.5C 172.177,168.31 172.51,162.31 173.5,156.5 Z"/></g>
<g><path style="opacity:0.437" fill="#f8e4c1" d="M 327.5,155.5 C 327.833,155.5 328.167,155.5 328.5,155.5C 329.807,161.734 329.807,168.068 328.5,174.5C 328.167,174.5 327.833,174.5 327.5,174.5C 327.5,168.167 327.5,161.833 327.5,155.5 Z"/></g>
<g><path style="opacity:0.631" fill="#e6c999" d="M 281.5,156.5 C 284.36,163.771 283.693,170.771 279.5,177.5C 280.574,173.371 281.574,169.204 282.5,165C 281.923,162.863 281.59,160.696 281.5,158.5C 281.5,157.833 281.5,157.167 281.5,156.5 Z"/></g>
<g><path style="opacity:0.551" fill="#f1d7a9" d="M 173.5,151.5 C 173.5,152.833 173.5,154.167 173.5,155.5C 173.5,155.833 173.5,156.167 173.5,156.5C 172.51,162.31 172.177,168.31 172.5,174.5C 172.167,174.5 171.833,174.5 171.5,174.5C 170.167,168.167 170.167,161.833 171.5,155.5C 172.167,154.167 172.833,152.833 173.5,151.5 Z"/></g>
<g><path style="opacity:0.976" fill="#dca95f" d="M 279.5,149.5 C 281.284,150.574 282.451,152.24 283,154.5C 285.319,163.824 284.486,172.824 280.5,181.5C 279.5,182.167 278.5,182.833 277.5,183.5C 278.63,181.685 279.296,179.685 279.5,177.5C 283.693,170.771 284.36,163.771 281.5,156.5C 281.122,154.079 280.455,151.746 279.5,149.5 Z"/></g>
<g><path style="opacity:1" fill="#eeac4c" d="M 218.5,153.5 C 215.558,163.906 216.558,173.906 221.5,183.5C 221.5,184.167 221.5,184.833 221.5,185.5C 219.228,184.277 218.061,182.277 218,179.5C 217.667,180.167 217.333,180.833 217,181.5C 215.717,174.202 215.383,166.869 216,159.5C 216.24,157.148 217.073,155.148 218.5,153.5 Z"/></g>
<g><path style="opacity:0.007" fill="#fffaeb" d="M 327.5,174.5 C 327.833,174.5 328.167,174.5 328.5,174.5C 328.876,179.894 327.876,184.894 325.5,189.5C 325.5,188.167 325.5,186.833 325.5,185.5C 325.5,184.833 325.5,184.167 325.5,183.5C 326.657,180.727 327.324,177.727 327.5,174.5 Z"/></g>
<g><path style="opacity:0.255" fill="#fcecd0" d="M 279.5,177.5 C 279.296,179.685 278.63,181.685 277.5,183.5C 276.5,184.167 275.5,184.833 274.5,185.5C 275.669,182.489 277.336,179.822 279.5,177.5 Z"/></g>
<g><path style="opacity:0.965" fill="#d9aa5e" d="M 221.5,183.5 C 224.5,185.833 227.167,188.5 229.5,191.5C 226.569,189.909 223.902,187.909 221.5,185.5C 221.5,184.833 221.5,184.167 221.5,183.5 Z"/></g>
<g><path style="opacity:0.149" fill="#fff2e6" d="M 274.5,185.5 C 273.833,186.833 272.833,187.833 271.5,188.5C 271.5,186.5 272.5,185.5 274.5,185.5 Z"/></g>
<g><path style="opacity:0.851" fill="#dcb273" d="M 277.5,183.5 C 276.243,186.427 274.243,188.761 271.5,190.5C 271.5,189.833 271.5,189.167 271.5,188.5C 272.833,187.833 273.833,186.833 274.5,185.5C 275.5,184.833 276.5,184.167 277.5,183.5 Z"/></g>
<g><path style="opacity:0.365" fill="#f5cf99" d="M 325.5,185.5 C 325.5,186.833 325.5,188.167 325.5,189.5C 324.833,190.167 324.167,190.833 323.5,191.5C 323.259,189.102 323.926,187.102 325.5,185.5 Z"/></g>
<g><path style="opacity:0.057" fill="#fbecd6" d="M 171.5,174.5 C 171.833,174.5 172.167,174.5 172.5,174.5C 173.088,177.61 173.755,180.61 174.5,183.5C 174.89,186.839 175.39,190.173 176,193.5C 178.11,196.18 179.943,198.846 181.5,201.5C 181.5,201.833 181.5,202.167 181.5,202.5C 181.5,203.167 181.5,203.833 181.5,204.5C 178.003,200.852 175.503,196.519 174,191.5C 171.984,186.012 171.151,180.345 171.5,174.5 Z"/></g>
<g><path style="opacity:0.169" fill="#f7e1bf" d="M 236.5,134.5 C 237.5,134.5 238.5,134.5 239.5,134.5C 236.564,136.308 233.564,138.141 230.5,140C 213.56,156.575 213.56,173.242 230.5,190C 244.583,199.048 258.249,198.548 271.5,188.5C 271.5,189.167 271.5,189.833 271.5,190.5C 267.357,193.339 263.023,195.672 258.5,197.5C 252.158,197.666 245.825,197.5 239.5,197C 236.279,194.943 232.946,193.109 229.5,191.5C 227.167,188.5 224.5,185.833 221.5,183.5C 216.558,173.906 215.558,163.906 218.5,153.5C 220.035,149.947 222.035,146.614 224.5,143.5C 227.627,139.378 231.627,136.378 236.5,134.5 Z"/></g>
<g><path style="opacity:1" fill="#e8ab5b" d="M 174.5,183.5 C 175.743,185.964 176.743,188.63 177.5,191.5C 178.478,191.977 179.311,192.643 180,193.5C 180.395,196.207 180.895,198.873 181.5,201.5C 179.943,198.846 178.11,196.18 176,193.5C 175.39,190.173 174.89,186.839 174.5,183.5 Z"/></g>
<g><path style="opacity:0.98" fill="#daa55b" d="M 271.5,190.5 C 268.691,195.246 264.358,197.579 258.5,197.5C 263.023,195.672 267.357,193.339 271.5,190.5 Z"/></g>
<g><path style="opacity:1" fill="#ebb155" d="M 321.5,194.5 C 320.376,199.588 318.043,203.922 314.5,207.5C 314.586,205.323 315.253,203.323 316.5,201.5C 317.943,198.923 319.61,196.59 321.5,194.5 Z"/></g>
<g><path style="opacity:0.963" fill="#dbaa5d" d="M 229.5,191.5 C 232.946,193.109 236.279,194.943 239.5,197C 245.825,197.5 252.158,197.666 258.5,197.5C 253.944,199.442 248.944,200.108 243.5,199.5C 237.702,198.893 233.035,196.226 229.5,191.5 Z"/></g>
<g><path style="opacity:1" fill="#f5aa40" d="M 280.5,181.5 C 279.217,183.606 278.384,185.94 278,188.5C 276.736,190.607 274.903,191.607 272.5,191.5C 272.297,193.638 271.297,195.305 269.5,196.5C 270.325,197.386 271.325,197.719 272.5,197.5C 272.5,198.833 272.5,200.167 272.5,201.5C 268.611,201.376 265.278,202.709 262.5,205.5C 261.713,204.758 261.047,203.925 260.5,203C 263.082,202.104 265.416,200.771 267.5,199C 262.284,199.622 256.95,200.122 251.5,200.5C 248.645,200.497 245.978,200.164 243.5,199.5C 248.944,200.108 253.944,199.442 258.5,197.5C 264.358,197.579 268.691,195.246 271.5,190.5C 274.243,188.761 276.243,186.427 277.5,183.5C 278.5,182.833 279.5,182.167 280.5,181.5 Z"/></g>
<g><path style="opacity:1" fill="#e7ae69" d="M 181.5,202.5 C 184.324,202.989 185.657,204.656 185.5,207.5C 184.363,206.211 183.03,205.211 181.5,204.5C 181.5,203.833 181.5,203.167 181.5,202.5 Z"/></g>
<g><path style="opacity:0.271" fill="#feeac9" d="M 325.5,189.5 C 322.057,201.057 316.057,211.057 307.5,219.5C 307.5,218.833 307.5,218.167 307.5,217.5C 310.223,214.443 312.556,211.11 314.5,207.5C 318.043,203.922 320.376,199.588 321.5,194.5C 322.167,194.5 322.5,194.167 322.5,193.5C 323.338,193.158 323.672,192.492 323.5,191.5C 324.167,190.833 324.833,190.167 325.5,189.5 Z"/></g>
<g><path style="opacity:0.996" fill="#e3a75b" d="M 185.5,207.5 C 188.264,208.948 189.931,211.281 190.5,214.5C 188.478,212.469 186.811,210.135 185.5,207.5 Z"/></g>
<g><path style="opacity:0.494" fill="#f2c27c" d="M 307.5,217.5 C 307.5,218.167 307.5,218.833 307.5,219.5C 306.094,219.973 305.427,220.973 305.5,222.5C 304.833,222.833 304.167,223.167 303.5,223.5C 303.845,220.802 305.178,218.802 307.5,217.5 Z"/></g>
<g><path style="opacity:0.027" fill="#fff2d4" d="M 307.5,219.5 C 307.573,221.027 306.906,222.027 305.5,222.5C 305.427,220.973 306.094,219.973 307.5,219.5 Z"/></g>
<g><path style="opacity:1" fill="#e6ab58" d="M 190.5,214.5 C 196.308,220.94 201.974,227.606 207.5,234.5C 208.902,237.537 210.235,240.537 211.5,243.5C 203.346,234.678 196.346,225.011 190.5,214.5 Z"/></g>
<g><path style="opacity:0.157" fill="#fde6b8" d="M 305.5,222.5 C 303.565,226.707 300.898,230.373 297.5,233.5C 296.833,233.833 296.167,234.167 295.5,234.5C 298.142,230.852 300.809,227.185 303.5,223.5C 304.167,223.167 304.833,222.833 305.5,222.5 Z"/></g>
<g><path style="opacity:0.024" fill="#fff6e9" d="M 297.5,233.5 C 297.573,235.027 296.906,236.027 295.5,236.5C 295.5,235.833 295.5,235.167 295.5,234.5C 296.167,234.167 296.833,233.833 297.5,233.5 Z"/></g>
<g><path style="opacity:0.333" fill="#fadaab" d="M 295.5,234.5 C 295.5,235.167 295.5,235.833 295.5,236.5C 293.526,239.482 291.526,242.482 289.5,245.5C 288.833,245.5 288.167,245.5 287.5,245.5C 287.5,244.833 287.5,244.167 287.5,243.5C 290.167,240.5 292.833,237.5 295.5,234.5 Z"/></g>
<g><path style="opacity:1" fill="#f4ad4b" d="M 287.5,243.5 C 287.5,244.167 287.5,244.833 287.5,245.5C 285.183,249.146 282.516,252.48 279.5,255.5C 278.026,253.073 278.193,250.74 280,248.5C 281.011,249.337 282.178,249.67 283.5,249.5C 283.354,246.446 284.687,244.446 287.5,243.5 Z"/></g>
<g><path style="opacity:1" fill="#ecaa48" d="M 217.5,251.5 C 219.5,251.5 221.5,251.5 223.5,251.5C 223.5,253.833 223.5,256.167 223.5,258.5C 224.5,258.5 225.5,258.5 226.5,258.5C 226.833,260.5 227.167,262.5 227.5,264.5C 223.443,260.716 220.109,256.383 217.5,251.5 Z"/></g>
<g><path style="opacity:0.494" fill="#fde5bb" d="M 287.5,245.5 C 288.167,245.5 288.833,245.5 289.5,245.5C 285.142,251.844 280.475,257.844 275.5,263.5C 275.5,262.833 275.5,262.167 275.5,261.5C 276.441,259.228 277.774,257.228 279.5,255.5C 282.516,252.48 285.183,249.146 287.5,245.5 Z"/></g>
<g><path style="opacity:0.729" fill="#efba6d" d="M 275.5,261.5 C 275.5,262.167 275.5,262.833 275.5,263.5C 272.49,266.874 269.49,270.208 266.5,273.5C 266.351,272.448 266.517,271.448 267,270.5C 269.387,267.043 272.22,264.043 275.5,261.5 Z"/></g>
<g><path style="opacity:0.4" fill="#f9e4c6" d="M 181.5,204.5 C 183.03,205.211 184.363,206.211 185.5,207.5C 186.811,210.135 188.478,212.469 190.5,214.5C 196.346,225.011 203.346,234.678 211.5,243.5C 213.122,246.455 215.122,249.122 217.5,251.5C 220.109,256.383 223.443,260.716 227.5,264.5C 227.5,264.833 227.5,265.167 227.5,265.5C 231.512,270.872 235.512,276.205 239.5,281.5C 242.5,285.5 245.5,289.5 248.5,293.5C 245.249,290.754 242.083,287.754 239,284.5C 218.815,258.494 199.648,231.828 181.5,204.5 Z"/></g>
<g><path style="opacity:1" fill="#e5ab4d" d="M 227.5,265.5 C 229.17,265.751 230.67,266.418 232,267.5C 234.725,272.055 237.225,276.722 239.5,281.5C 235.512,276.205 231.512,270.872 227.5,265.5 Z"/></g>
<g><path style="opacity:0.263" fill="#fde7be" d="M 275.5,263.5 C 270.578,270.936 265.411,278.269 260,285.5C 257.63,288.039 255.13,290.372 252.5,292.5C 252.5,292.167 252.5,291.833 252.5,291.5C 257.158,285.53 261.825,279.53 266.5,273.5C 269.49,270.208 272.49,266.874 275.5,263.5 Z"/></g>
<g><path style="opacity:0.965" fill="#e0ab5f" d="M 239.5,281.5 C 241.371,281.859 242.871,282.859 244,284.5C 245.871,288.223 248.705,290.556 252.5,291.5C 252.5,291.833 252.5,292.167 252.5,292.5C 251.167,292.833 249.833,293.167 248.5,293.5C 245.5,289.5 242.5,285.5 239.5,281.5 Z"/></g>
<g><path style="opacity:0.275" fill="#f8e9d2" d="M 252.5,292.5 C 251.462,294.519 250.128,294.853 248.5,293.5C 249.833,293.167 251.167,292.833 252.5,292.5 Z"/></g>
</svg>
