<?xml version="1.0" encoding="UTF-8"?>
<!DOCTYPE svg PUBLIC "-//W3C//DTD SVG 1.1//EN" "http://www.w3.org/Graphics/SVG/1.1/DTD/svg11.dtd">
<svg xmlns="http://www.w3.org/2000/svg" version="1.1" width="500px" height="500px" style="shape-rendering:geometricPrecision; text-rendering:geometricPrecision; image-rendering:optimizeQuality; fill-rule:evenodd; clip-rule:evenodd" xmlns:xlink="http://www.w3.org/1999/xlink">
<g><path style="opacity:1" fill="#171d36" d="M 360.5,56.5 C 361.78,57.9313 363.447,58.5979 365.5,58.5C 376.768,61.3042 387.101,65.9709 396.5,72.5C 397.035,74.4456 398.368,75.4456 400.5,75.5C 409.458,81.4578 417.125,88.7911 423.5,97.5C 423.427,99.0269 424.094,100.027 425.5,100.5C 438.677,118.298 445.677,138.464 446.5,161C 446.034,168.799 444.7,176.299 442.5,183.5C 441.301,186.6 439.801,189.6 438,192.5C 437.503,194.81 437.337,197.143 437.5,199.5C 436.773,201.954 435.773,204.287 434.5,206.5C 433.094,206.973 432.427,207.973 432.5,209.5C 430.292,211.143 428.459,210.81 427,208.5C 426.535,209.931 425.701,211.097 424.5,212C 425.022,212.561 425.355,213.228 425.5,214C 424.839,216.464 424.339,218.964 424,221.5C 423.667,220.833 423.333,220.167 423,219.5C 421.731,222.739 419.731,225.405 417,227.5C 416.506,229.134 416.34,230.801 416.5,232.5C 406.203,245.797 394.537,257.797 381.5,268.5C 380.504,268.586 379.671,268.252 379,267.5C 378.957,271.731 376.79,273.564 372.5,273C 373.756,273.417 374.423,274.25 374.5,275.5C 370.17,273.952 367.67,275.619 367,280.5C 366.086,279.346 365.253,279.513 364.5,281C 365.252,281.671 365.586,282.504 365.5,283.5C 362.433,286.882 359.099,290.048 355.5,293C 354.255,293.791 352.922,294.291 351.5,294.5C 350.85,294.196 350.183,293.863 349.5,293.5C 348.304,293.846 348.304,294.346 349.5,295C 346.723,295.061 344.723,296.228 343.5,298.5C 335.732,301.133 328.066,301.133 320.5,298.5C 318.898,296.926 316.898,296.259 314.5,296.5C 314.027,295.094 313.027,294.427 311.5,294.5C 311.5,293.5 311.5,292.5 311.5,291.5C 308.602,290.882 305.935,289.715 303.5,288C 303.273,286.865 302.94,285.698 302.5,284.5C 301.583,285.127 300.583,285.461 299.5,285.5C 297.833,284.5 296.5,283.167 295.5,281.5C 295.167,280.5 294.5,279.833 293.5,279.5C 288.199,275.534 283.199,271.2 278.5,266.5C 278.384,264.425 277.884,262.425 277,260.5C 276.667,261.167 276.333,261.833 276,262.5C 274.843,258.17 272.009,255.837 267.5,255.5C 258.468,247.635 250.301,238.968 243,229.5C 238.977,224.112 235.477,218.446 232.5,212.5C 232.123,210.742 231.456,209.075 230.5,207.5C 231.429,205.678 230.762,204.345 228.5,203.5C 228.709,202.914 229.043,202.414 229.5,202C 227.588,200.8 226.255,199.133 225.5,197C 226.738,197.077 227.738,196.911 228.5,196.5C 226.757,194.679 225.257,192.679 224,190.5C 223.617,191.056 223.117,191.389 222.5,191.5C 222.41,189.304 222.077,187.137 221.5,185C 221.316,183.624 220.649,182.791 219.5,182.5C 219.5,181.5 219.5,180.5 219.5,179.5C 219.167,176.833 218.833,174.167 218.5,171.5C 218.334,164.492 218.5,157.492 219,150.5C 220.976,147.632 221.476,144.632 220.5,141.5C 220.849,139.624 221.516,138.124 222.5,137C 221.849,134.637 221.849,132.137 222.5,129.5C 225.827,127.53 227.661,124.53 228,120.5C 228.833,119 230,117.833 231.5,117C 230.572,116.612 229.905,115.945 229.5,115C 230.497,113.404 231.663,111.904 233,110.5C 233.494,108.866 233.66,107.199 233.5,105.5C 234.5,104.167 235.5,102.833 236.5,101.5C 239.265,99.7867 241.598,97.62 243.5,95C 244.5,94.6667 245.5,94.3333 246.5,94C 249.772,88.7258 254.105,84.7258 259.5,82C 258.549,81.2825 258.383,80.4491 259,79.5C 261.617,78.6492 263.451,76.9825 264.5,74.5C 293.659,54.1799 325.659,48.1799 360.5,56.5 Z M 367.5,88.5 C 367.973,89.9063 368.973,90.573 370.5,90.5C 374.034,92.7664 377.7,94.7664 381.5,96.5C 382.262,98.2624 383.596,99.2624 385.5,99.5C 390.473,103.806 395.14,108.473 399.5,113.5C 400.8,116.432 402.8,118.766 405.5,120.5C 408.805,126.566 411.638,132.899 414,139.5C 416.02,147.368 417.187,155.368 417.5,163.5C 416.91,170.636 415.243,177.636 412.5,184.5C 406.78,197.212 399.446,208.879 390.5,219.5C 388.086,220.911 386.419,222.911 385.5,225.5C 374.473,236.194 363.473,246.861 352.5,257.5C 349.236,259.094 346.569,261.427 344.5,264.5C 340.874,268.146 336.54,270.48 331.5,271.5C 329.423,271.308 327.423,270.808 325.5,270C 322,267.331 318.667,264.498 315.5,261.5C 314.833,260.167 313.833,259.167 312.5,258.5C 311.833,257.167 310.833,256.167 309.5,255.5C 292.771,241.106 277.438,225.439 263.5,208.5C 263.573,206.973 262.906,205.973 261.5,205.5C 256.735,198.306 252.735,190.639 249.5,182.5C 249.598,180.447 248.931,178.78 247.5,177.5C 247.5,177.167 247.5,176.833 247.5,176.5C 246.062,169.247 245.395,161.913 245.5,154.5C 246.531,152.039 247.198,149.373 247.5,146.5C 248.167,143.5 248.833,140.5 249.5,137.5C 250.674,136.486 251.34,135.153 251.5,133.5C 251.5,133.167 251.5,132.833 251.5,132.5C 255.74,124.358 260.74,116.691 266.5,109.5C 269.167,107.5 271.5,105.167 273.5,102.5C 276.68,100.745 279.68,98.7451 282.5,96.5C 283.167,96.5 283.5,96.1667 283.5,95.5C 285.027,95.573 286.027,94.9063 286.5,93.5C 288.819,93.0075 290.819,92.0075 292.5,90.5C 295.485,89.6743 298.151,88.341 300.5,86.5C 323.07,79.4219 345.404,80.0886 367.5,88.5 Z M 333.5,154.5 C 343.028,158.224 346.028,164.89 342.5,174.5C 341.094,174.973 340.427,175.973 340.5,177.5C 325.204,183.021 318.204,177.687 319.5,161.5C 323.037,157.065 327.703,154.732 333.5,154.5 Z"/></g>
<g><path style="opacity:0.059" fill="#91929b" d="M 360.5,56.5 C 362.553,56.4021 364.22,57.0687 365.5,58.5C 363.447,58.5979 361.78,57.9313 360.5,56.5 Z"/></g>
<g><path style="opacity:1" fill="#171d36" d="M 227.5,61.5 C 227.665,65.1817 227.499,68.8484 227,72.5C 224.927,74.1648 222.76,75.6648 220.5,77C 219.167,77.6667 219.167,78.3333 220.5,79C 217.574,79.2178 214.74,79.7178 212,80.5C 211.667,80.1667 211.333,79.8333 211,79.5C 209.373,80.5323 208.207,81.8656 207.5,83.5C 206.081,84.4511 204.415,84.7845 202.5,84.5C 200.447,84.4021 198.78,85.0687 197.5,86.5C 160.834,99.8506 131.501,122.517 109.5,154.5C 108.178,154.33 107.011,154.663 106,155.5C 103.849,159.295 102.349,163.295 101.5,167.5C 99.9081,168.602 99.0748,167.935 99,165.5C 96.8909,169.936 95.7243,174.603 95.5,179.5C 95.7373,180.791 95.404,181.791 94.5,182.5C 91.3787,183.736 90.0454,186.069 90.5,189.5C 88.7193,193.049 86.7193,196.549 84.5,200C 84.327,206.637 82.6603,213.137 79.5,219.5C 79.8982,228.074 79.8982,236.74 79.5,245.5C 79.6667,252.833 79.8333,260.167 80,267.5C 83.73,268.46 87.5633,268.793 91.5,268.5C 91.5,269.833 91.5,271.167 91.5,272.5C 95.7614,272.239 98.0947,269.906 98.5,265.5C 100.809,264.349 102.976,263.016 105,261.5C 106.811,262.078 108.645,262.578 110.5,263C 111.337,264.011 111.67,265.178 111.5,266.5C 112.5,266.5 113.5,266.5 114.5,266.5C 115.242,268.594 115.909,270.761 116.5,273C 116.212,275.187 115.878,277.354 115.5,279.5C 111.845,279.472 109.178,281.139 107.5,284.5C 106.264,283.754 104.93,283.421 103.5,283.5C 103.167,285.5 102.833,287.5 102.5,289.5C 97.1871,290.175 92.8538,292.508 89.5,296.5C 88.9569,296.56 88.6236,296.893 88.5,297.5C 89.9,300.035 90.9,302.702 91.5,305.5C 91.2355,309.653 92.5688,312.987 95.5,315.5C 96.9313,316.78 97.5979,318.447 97.5,320.5C 97.427,322.027 98.0937,323.027 99.5,323.5C 99.5,323.833 99.5,324.167 99.5,324.5C 99.427,326.027 100.094,327.027 101.5,327.5C 103.766,331.034 105.766,334.7 107.5,338.5C 107.427,340.027 108.094,341.027 109.5,341.5C 109.427,343.027 110.094,344.027 111.5,344.5C 111.427,346.027 112.094,347.027 113.5,347.5C 117.794,353.129 122.461,358.463 127.5,363.5C 129.43,367.1 132.097,370.1 135.5,372.5C 137.878,373.692 139.878,375.359 141.5,377.5C 141.351,378.552 141.517,379.552 142,380.5C 144.308,381.641 146.141,383.308 147.5,385.5C 152.249,386.532 155.916,389.032 158.5,393C 160.18,392.229 161.847,392.395 163.5,393.5C 163.987,394.473 164.487,395.473 165,396.5C 165.986,395.829 167.153,395.829 168.5,396.5C 167.235,397.479 165.901,398.479 164.5,399.5C 165.348,401.409 165.682,403.409 165.5,405.5C 166.93,405.421 168.264,405.754 169.5,406.5C 170.795,405.902 172.128,405.402 173.5,405C 172.72,403.927 172.887,402.76 174,401.5C 175.487,402.253 175.654,403.086 174.5,404C 176.693,405.064 178.693,406.398 180.5,408C 180.167,408.333 179.833,408.667 179.5,409C 180.308,409.308 180.975,409.808 181.5,410.5C 177.574,411.002 174.074,411.335 171,411.5C 167.831,409.335 164.331,407.835 160.5,407C 159.833,406 159.167,405 158.5,404C 153.467,403.171 148.467,403.338 143.5,404.5C 147.351,405.345 149.351,407.678 149.5,411.5C 147.784,411.371 146.117,411.038 144.5,410.5C 140.75,409.123 137.084,407.623 133.5,406C 132.833,404.667 132.167,403.333 131.5,402C 127.622,400.44 123.956,398.606 120.5,396.5C 119.833,396.5 119.5,396.167 119.5,395.5C 119.167,394.5 118.5,393.833 117.5,393.5C 117.167,392.5 116.5,391.833 115.5,391.5C 107.081,385.083 100.081,377.416 94.5,368.5C 94.1436,366.81 93.1436,365.81 91.5,365.5C 81.6864,352.209 73.6864,337.876 67.5,322.5C 67.8799,320.302 67.2132,318.635 65.5,317.5C 61.1032,306.289 58.1032,294.622 56.5,282.5C 56.4512,278.922 55.7846,275.589 54.5,272.5C 51.4835,247.056 53.1502,222.056 59.5,197.5C 61.68,194.619 62.68,191.286 62.5,187.5C 62.6896,184.145 63.6896,181.145 65.5,178.5C 66.9313,177.22 67.5979,175.553 67.5,173.5C 67.5,173.167 67.5,172.833 67.5,172.5C 69.1042,171.713 69.7709,170.38 69.5,168.5C 72.2928,161.581 75.6261,154.914 79.5,148.5C 80.9063,148.027 81.573,147.027 81.5,145.5C 82.6693,142.489 84.336,139.822 86.5,137.5C 87.9063,137.027 88.573,136.027 88.5,134.5C 89.4602,132.539 90.7935,130.873 92.5,129.5C 97.3424,127.49 100.676,123.99 102.5,119C 104.519,118.55 106.352,117.717 108,116.5C 108.684,115.216 108.517,114.049 107.5,113C 108.973,112.29 109.64,111.124 109.5,109.5C 113.513,104.488 118.179,100.155 123.5,96.5C 129.062,94.7172 134.062,91.8839 138.5,88C 139.833,87.3333 139.833,86.6667 138.5,86C 140.692,84.9331 142.358,83.4331 143.5,81.5C 152.782,74.9004 162.782,69.5671 173.5,65.5C 180.173,64.6299 186.173,62.2966 191.5,58.5C 198.931,55.7578 206.598,53.7578 214.5,52.5C 220.768,52.7984 225.101,55.7984 227.5,61.5 Z"/></g>
<g><path style="opacity:0.686" fill="#4e4c5c" d="M 191.5,58.5 C 186.173,62.2966 180.173,64.6299 173.5,65.5C 179.21,62.6537 185.21,60.3204 191.5,58.5 Z"/></g>
<g><path style="opacity:0.376" fill="#8c8d95" d="M 396.5,72.5 C 398.23,73.0256 399.564,74.0256 400.5,75.5C 398.368,75.4456 397.035,74.4456 396.5,72.5 Z"/></g>
<g><path style="opacity:0.961" fill="#434153" d="M 227.5,61.5 C 230.343,69.2511 228.343,75.4178 221.5,80C 216.965,81.7398 212.298,82.9065 207.5,83.5C 208.207,81.8656 209.373,80.5323 211,79.5C 211.333,79.8333 211.667,80.1667 212,80.5C 214.74,79.7178 217.574,79.2178 220.5,79C 219.167,78.3333 219.167,77.6667 220.5,77C 222.76,75.6648 224.927,74.1648 227,72.5C 227.499,68.8484 227.665,65.1817 227.5,61.5 Z"/></g>
<g><path style="opacity:0.035" fill="#aaaaba" d="M 202.5,84.5 C 201.22,85.9313 199.553,86.5979 197.5,86.5C 198.78,85.0687 200.447,84.4021 202.5,84.5 Z"/></g>
<g><path style="opacity:0.588" fill="#4a4c57" d="M 300.5,86.5 C 298.151,88.341 295.485,89.6743 292.5,90.5C 292.389,89.8826 292.056,89.3826 291.5,89C 294.368,87.617 297.368,86.7837 300.5,86.5 Z"/></g>
<g><path style="opacity:0.043" fill="#a3a2b1" d="M 367.5,88.5 C 369.027,88.427 370.027,89.0937 370.5,90.5C 368.973,90.573 367.973,89.9063 367.5,88.5 Z"/></g>
<g><path style="opacity:0.839" fill="#303043" d="M 264.5,74.5 C 263.451,76.9825 261.617,78.6492 259,79.5C 258.383,80.4491 258.549,81.2825 259.5,82C 254.105,84.7258 249.772,88.7258 246.5,94C 245.5,94.3333 244.5,94.6667 243.5,95C 241.598,97.62 239.265,99.7867 236.5,101.5C 243.879,90.4545 253.212,81.4545 264.5,74.5 Z"/></g>
<g><path style="opacity:0.933" fill="#363646" d="M 143.5,81.5 C 142.358,83.4331 140.692,84.9331 138.5,86C 139.833,86.6667 139.833,87.3333 138.5,88C 134.062,91.8839 129.062,94.7172 123.5,96.5C 129.443,90.5294 136.109,85.5294 143.5,81.5 Z"/></g>
<g><path style="opacity:0.004" fill="#c5c4d2" d="M 286.5,93.5 C 286.027,94.9063 285.027,95.573 283.5,95.5C 283.973,94.0937 284.973,93.427 286.5,93.5 Z"/></g>
<g><path style="opacity:0.173" fill="#9898a4" d="M 381.5,96.5 C 383.404,96.7376 384.738,97.7376 385.5,99.5C 383.596,99.2624 382.262,98.2624 381.5,96.5 Z"/></g>
<g><path style="opacity:1" fill="#4b4c5d" d="M 282.5,96.5 C 279.68,98.7451 276.68,100.745 273.5,102.5C 272.766,101.292 272.433,99.9587 272.5,98.5C 276.079,98.6837 279.413,98.017 282.5,96.5 Z"/></g>
<g><path style="opacity:0.129" fill="#8a8990" d="M 423.5,97.5 C 424.906,97.9731 425.573,98.9731 425.5,100.5C 424.094,100.027 423.427,99.0269 423.5,97.5 Z"/></g>
<g><path style="opacity:0.669" fill="#565467" d="M 399.5,113.5 C 400.847,114.171 402.014,114.171 403,113.5C 403.856,115.868 404.69,118.202 405.5,120.5C 402.8,118.766 400.8,116.432 399.5,113.5 Z"/></g>
<g><path style="opacity:0.999" fill="#2b2b42" d="M 266.5,109.5 C 260.74,116.691 255.74,124.358 251.5,132.5C 249.522,130.447 248.355,127.447 248,123.5C 250.009,120.742 252.009,120.408 254,122.5C 254.915,121.672 255.581,120.672 256,119.5C 256.333,119.833 256.667,120.167 257,120.5C 257.492,119.451 257.326,118.451 256.5,117.5C 257.603,117.002 258.603,116.669 259.5,116.5C 259.167,115.833 258.833,115.167 258.5,114.5C 260.72,112.018 263.387,110.352 266.5,109.5 Z"/></g>
<g><path style="opacity:1" fill="#323244" d="M 109.5,109.5 C 109.64,111.124 108.973,112.29 107.5,113C 108.517,114.049 108.684,115.216 108,116.5C 106.352,117.717 104.519,118.55 102.5,119C 100.676,123.99 97.3424,127.49 92.5,129.5C 97.2382,122.01 102.905,115.343 109.5,109.5 Z"/></g>
<g><path style="opacity:0.975" fill="#403e4f" d="M 233.5,105.5 C 233.66,107.199 233.494,108.866 233,110.5C 231.663,111.904 230.497,113.404 229.5,115C 229.905,115.945 230.572,116.612 231.5,117C 230,117.833 228.833,119 228,120.5C 227.661,124.53 225.827,127.53 222.5,129.5C 225.027,120.893 228.694,112.893 233.5,105.5 Z"/></g>
<g><path style="opacity:0.286" fill="#6c6973" d="M 327.5,126.5 C 332.552,125.421 337.552,125.754 342.5,127.5C 337.493,127.249 332.493,126.916 327.5,126.5 Z"/></g>
<g><path style="opacity:0.388" fill="#676472" d="M 323.5,126.5 C 320.2,128.642 316.533,129.975 312.5,130.5C 315.797,128.399 319.463,127.065 323.5,126.5 Z"/></g>
<g><path style="opacity:1" fill="#191e37" d="M 323.5,126.5 C 324.833,126.5 326.167,126.5 327.5,126.5C 332.493,126.916 337.493,127.249 342.5,127.5C 348.36,128.667 353.36,131.333 357.5,135.5C 357.461,136.583 357.127,137.583 356.5,138.5C 358.193,139.228 359.693,140.228 361,141.5C 361.333,141.167 361.667,140.833 362,140.5C 362.36,142.608 363.027,144.608 364,146.5C 364.342,144.381 365.175,144.047 366.5,145.5C 366.427,147.027 367.094,148.027 368.5,148.5C 378.816,175.05 371.149,194.55 345.5,207C 332.622,211.321 320.622,209.821 309.5,202.5C 309.027,201.094 308.027,200.427 306.5,200.5C 296.964,194.117 291.464,185.117 290,173.5C 289.186,168.98 289.353,164.646 290.5,160.5C 292.411,156.767 293.744,152.767 294.5,148.5C 295.906,148.027 296.573,147.027 296.5,145.5C 300.548,139.118 305.882,134.118 312.5,130.5C 316.533,129.975 320.2,128.642 323.5,126.5 Z M 333.5,154.5 C 343.028,158.224 346.028,164.89 342.5,174.5C 341.094,174.973 340.427,175.973 340.5,177.5C 325.204,183.021 318.204,177.687 319.5,161.5C 323.037,157.065 327.703,154.732 333.5,154.5 Z"/></g>
<g><path style="opacity:0.067" fill="#adaeb2" d="M 251.5,133.5 C 251.34,135.153 250.674,136.486 249.5,137.5C 249.229,135.62 249.896,134.287 251.5,133.5 Z"/></g>
<g><path style="opacity:0.067" fill="#afadb8" d="M 88.5,134.5 C 88.573,136.027 87.9063,137.027 86.5,137.5C 86.427,135.973 87.0937,134.973 88.5,134.5 Z"/></g>
<g><path style="opacity:1" fill="#3a3c4e" d="M 357.5,135.5 C 361.876,137.577 364.876,140.911 366.5,145.5C 365.175,144.047 364.342,144.381 364,146.5C 363.027,144.608 362.36,142.608 362,140.5C 361.667,140.833 361.333,141.167 361,141.5C 359.693,140.228 358.193,139.228 356.5,138.5C 357.127,137.583 357.461,136.583 357.5,135.5 Z"/></g>
<g><path style="opacity:0.055" fill="#adadbf" d="M 81.5,145.5 C 81.573,147.027 80.9063,148.027 79.5,148.5C 79.427,146.973 80.0937,145.973 81.5,145.5 Z"/></g>
<g><path style="opacity:0.09" fill="#96959e" d="M 296.5,145.5 C 296.573,147.027 295.906,148.027 294.5,148.5C 294.427,146.973 295.094,145.973 296.5,145.5 Z"/></g>
<g><path style="opacity:0.094" fill="#9d99a5" d="M 366.5,145.5 C 367.906,145.973 368.573,146.973 368.5,148.5C 367.094,148.027 366.427,147.027 366.5,145.5 Z"/></g>
<g><path style="opacity:0.792" fill="#3b3a4a" d="M 222.5,129.5 C 221.849,132.137 221.849,134.637 222.5,137C 221.516,138.124 220.849,139.624 220.5,141.5C 221.476,144.632 220.976,147.632 219,150.5C 218.5,157.492 218.334,164.492 218.5,171.5C 218.167,171.5 217.833,171.5 217.5,171.5C 217.334,162.827 217.5,154.16 218,145.5C 218.764,139.837 220.264,134.503 222.5,129.5 Z"/></g>
<g><path style="opacity:0.067" fill="#a39ea8" d="M 247.5,146.5 C 247.198,149.373 246.531,152.039 245.5,154.5C 245.111,151.447 245.777,148.78 247.5,146.5 Z"/></g>
<g><path style="opacity:0.643" fill="#6c6b7b" d="M 294.5,148.5 C 293.744,152.767 292.411,156.767 290.5,160.5C 290.619,155.996 291.952,151.996 294.5,148.5 Z"/></g>
<g><path style="opacity:0.896" fill="#404450" d="M 109.5,154.5 C 107.07,159.037 104.403,163.37 101.5,167.5C 102.349,163.295 103.849,159.295 106,155.5C 107.011,154.663 108.178,154.33 109.5,154.5 Z"/></g>
<g><path style="opacity:0.749" fill="#61616e" d="M 333.5,154.5 C 327.703,154.732 323.037,157.065 319.5,161.5C 319.498,159.169 320.331,157.169 322,155.5C 322.333,155.833 322.667,156.167 323,156.5C 326.344,153.971 329.844,153.305 333.5,154.5 Z"/></g>
<g><path style="opacity:0.98" fill="#3c3b4d" d="M 101.5,167.5 C 100.008,171.818 98.0078,175.818 95.5,179.5C 95.7243,174.603 96.8909,169.936 99,165.5C 99.0748,167.935 99.9081,168.602 101.5,167.5 Z"/></g>
<g><path style="opacity:0.051" fill="#b4b4bd" d="M 69.5,168.5 C 69.7709,170.38 69.1042,171.713 67.5,172.5C 67.6596,170.847 68.3263,169.514 69.5,168.5 Z"/></g>
<g><path style="opacity:0.88" fill="#3d3d4f" d="M 245.5,154.5 C 245.395,161.913 246.062,169.247 247.5,176.5C 245.62,175.922 244.62,174.588 244.5,172.5C 244.354,166.469 244.688,160.469 245.5,154.5 Z"/></g>
<g><path style="opacity:0.22" fill="#85858e" d="M 342.5,174.5 C 342.573,176.027 341.906,177.027 340.5,177.5C 340.427,175.973 341.094,174.973 342.5,174.5 Z"/></g>
<g><path style="opacity:0.043" fill="#9a9aa9" d="M 67.5,173.5 C 67.5979,175.553 66.9313,177.22 65.5,178.5C 65.4021,176.447 66.0687,174.78 67.5,173.5 Z"/></g>
<g><path style="opacity:0.031" fill="#a7a8ae" d="M 217.5,171.5 C 217.833,171.5 218.167,171.5 218.5,171.5C 218.833,174.167 219.167,176.833 219.5,179.5C 217.96,177.162 217.294,174.495 217.5,171.5 Z"/></g>
<g><path style="opacity:0.904" fill="#555364" d="M 417.5,163.5 C 417.553,170.579 416.887,177.579 415.5,184.5C 414.5,184.5 413.5,184.5 412.5,184.5C 415.243,177.636 416.91,170.636 417.5,163.5 Z"/></g>
<g><path style="opacity:0.027" fill="#b7aabb" d="M 247.5,177.5 C 248.931,178.78 249.598,180.447 249.5,182.5C 248.069,181.22 247.402,179.553 247.5,177.5 Z"/></g>
<g><path style="opacity:0.475" fill="#7b7a89" d="M 219.5,182.5 C 220.649,182.791 221.316,183.624 221.5,185C 222.077,187.137 222.41,189.304 222.5,191.5C 220.928,188.785 219.928,185.785 219.5,182.5 Z"/></g>
<g><path style="opacity:0.839" fill="#53515e" d="M 94.5,182.5 C 93.6792,186.127 92.3459,189.46 90.5,192.5C 90.5,191.5 90.5,190.5 90.5,189.5C 90.0454,186.069 91.3787,183.736 94.5,182.5 Z"/></g>
<g><path style="opacity:0.545" fill="#696a76" d="M 62.5,187.5 C 62.68,191.286 61.68,194.619 59.5,197.5C 59.8993,193.884 60.8993,190.55 62.5,187.5 Z"/></g>
<g><path style="opacity:0.843" fill="#4b4959" d="M 442.5,183.5 C 442.013,189.291 440.346,194.624 437.5,199.5C 437.337,197.143 437.503,194.81 438,192.5C 439.801,189.6 441.301,186.6 442.5,183.5 Z"/></g>
<g><path style="opacity:0.11" fill="#7b7c93" d="M 90.5,192.5 C 90.5979,194.553 89.9313,196.22 88.5,197.5C 88.4021,195.447 89.0687,193.78 90.5,192.5 Z"/></g>
<g><path style="opacity:0.11" fill="#9c98a2" d="M 306.5,200.5 C 308.027,200.427 309.027,201.094 309.5,202.5C 307.973,202.573 306.973,201.906 306.5,200.5 Z"/></g>
<g><path style="opacity:0.094" fill="#9a9aa0" d="M 88.5,199.5 C 88.5979,201.553 87.9313,203.22 86.5,204.5C 86.4021,202.447 87.0687,200.78 88.5,199.5 Z"/></g>
<g><path style="opacity:0.922" fill="#2e3041" d="M 90.5,189.5 C 90.5,190.5 90.5,191.5 90.5,192.5C 89.0687,193.78 88.4021,195.447 88.5,197.5C 88.5,198.167 88.5,198.833 88.5,199.5C 87.0687,200.78 86.4021,202.447 86.5,204.5C 82.5034,225.322 81.5034,246.322 83.5,267.5C 84.4168,266.873 85.4168,266.539 86.5,266.5C 88.3797,266.771 89.713,266.104 90.5,264.5C 91.8221,264.33 92.9887,264.663 94,265.5C 95.8119,263.7 97.6452,262.033 99.5,260.5C 103.534,260.505 107.534,260.838 111.5,261.5C 117.668,264.54 120.168,269.54 119,276.5C 116.598,283.395 111.765,287.729 104.5,289.5C 103.833,289.5 103.167,289.5 102.5,289.5C 102.833,287.5 103.167,285.5 103.5,283.5C 104.93,283.421 106.264,283.754 107.5,284.5C 109.178,281.139 111.845,279.472 115.5,279.5C 115.878,277.354 116.212,275.187 116.5,273C 115.909,270.761 115.242,268.594 114.5,266.5C 113.5,266.5 112.5,266.5 111.5,266.5C 111.67,265.178 111.337,264.011 110.5,263C 108.645,262.578 106.811,262.078 105,261.5C 102.976,263.016 100.809,264.349 98.5,265.5C 98.0947,269.906 95.7614,272.239 91.5,272.5C 91.5,271.167 91.5,269.833 91.5,268.5C 87.5633,268.793 83.73,268.46 80,267.5C 79.8333,260.167 79.6667,252.833 79.5,245.5C 79.8982,236.74 79.8982,228.074 79.5,219.5C 82.6603,213.137 84.327,206.637 84.5,200C 86.7193,196.549 88.7193,193.049 90.5,189.5 Z"/></g>
<g><path style="opacity:0.794" fill="#4c4b5d" d="M 232.5,212.5 C 227.85,206.196 224.516,199.196 222.5,191.5C 223.117,191.389 223.617,191.056 224,190.5C 225.257,192.679 226.757,194.679 228.5,196.5C 227.738,196.911 226.738,197.077 225.5,197C 226.255,199.133 227.588,200.8 229.5,202C 229.043,202.414 228.709,202.914 228.5,203.5C 230.762,204.345 231.429,205.678 230.5,207.5C 231.456,209.075 232.123,210.742 232.5,212.5 Z"/></g>
<g><path style="opacity:0.227" fill="#8a8a92" d="M 261.5,205.5 C 262.906,205.973 263.573,206.973 263.5,208.5C 262.094,208.027 261.427,207.027 261.5,205.5 Z"/></g>
<g><path style="opacity:0.027" fill="#b4b4ba" d="M 434.5,206.5 C 434.573,208.027 433.906,209.027 432.5,209.5C 432.427,207.973 433.094,206.973 434.5,206.5 Z"/></g>
<g><path style="opacity:0.137" fill="#a2a2aa" d="M 390.5,219.5 C 389.581,222.089 387.914,224.089 385.5,225.5C 386.419,222.911 388.086,220.911 390.5,219.5 Z"/></g>
<g><path style="opacity:0.969" fill="#363648" d="M 432.5,209.5 C 428.396,218.048 423.063,225.714 416.5,232.5C 416.34,230.801 416.506,229.134 417,227.5C 419.731,225.405 421.731,222.739 423,219.5C 423.333,220.167 423.667,220.833 424,221.5C 424.339,218.964 424.839,216.464 425.5,214C 425.355,213.228 425.022,212.561 424.5,212C 425.701,211.097 426.535,209.931 427,208.5C 428.459,210.81 430.292,211.143 432.5,209.5 Z"/></g>
<g><path style="opacity:0.227" fill="#97959d" d="M 155.5,254.5 C 150.77,254.283 146.103,254.617 141.5,255.5C 141.611,254.883 141.944,254.383 142.5,254C 147.02,253.186 151.354,253.353 155.5,254.5 Z"/></g>
<g><path style="opacity:1" fill="#1a1f37" d="M 155.5,254.5 C 157.903,254.448 160.236,254.781 162.5,255.5C 163.99,257.28 165.99,257.946 168.5,257.5C 170.099,257.232 171.432,257.566 172.5,258.5C 174.102,260.074 176.102,260.741 178.5,260.5C 183.47,261.482 188.137,263.316 192.5,266C 199.667,274.662 199,282.662 190.5,290C 189.552,290.483 188.552,290.649 187.5,290.5C 183.466,290.495 179.466,290.162 175.5,289.5C 166.038,286.012 156.372,283.345 146.5,281.5C 144.857,279.027 142.69,277.027 140,275.5C 139.641,272.456 138.974,272.122 138,274.5C 136.922,270.202 136.089,265.869 135.5,261.5C 136.5,258.5 138.5,256.5 141.5,255.5C 146.103,254.617 150.77,254.283 155.5,254.5 Z"/></g>
<g><path style="opacity:0.239" fill="#86848d" d="M 162.5,255.5 C 164.786,255.595 166.786,256.262 168.5,257.5C 165.99,257.946 163.99,257.28 162.5,255.5 Z"/></g>
<g><path style="opacity:0.165" fill="#aeacb5" d="M 309.5,255.5 C 310.833,256.167 311.833,257.167 312.5,258.5C 310.5,258.5 309.5,257.5 309.5,255.5 Z"/></g>
<g><path style="opacity:0.22" fill="#757184" d="M 99.5,260.5 C 100.964,259.84 102.631,259.507 104.5,259.5C 107.205,259.316 109.538,259.983 111.5,261.5C 107.534,260.838 103.534,260.505 99.5,260.5 Z"/></g>
<g><path style="opacity:0.157" fill="#988da0" d="M 172.5,258.5 C 174.786,258.595 176.786,259.262 178.5,260.5C 176.102,260.741 174.102,260.074 172.5,258.5 Z"/></g>
<g><path style="opacity:0.031" fill="#9293a5" d="M 312.5,258.5 C 313.833,259.167 314.833,260.167 315.5,261.5C 313.5,261.5 312.5,260.5 312.5,258.5 Z"/></g>
<g><path style="opacity:0.282" fill="#7a7885" d="M 352.5,257.5 C 350.431,260.573 347.764,262.906 344.5,264.5C 346.569,261.427 349.236,259.094 352.5,257.5 Z"/></g>
<g><path style="opacity:0.49" fill="#605e6c" d="M 99.5,260.5 C 97.6452,262.033 95.8119,263.7 94,265.5C 92.9887,264.663 91.8221,264.33 90.5,264.5C 93.0884,262.408 96.0884,261.075 99.5,260.5 Z"/></g>
<g><path style="opacity:0.973" fill="#3e3e4f" d="M 267.5,255.5 C 272.009,255.837 274.843,258.17 276,262.5C 276.333,261.833 276.667,261.167 277,260.5C 277.884,262.425 278.384,264.425 278.5,266.5C 274.5,263.167 270.833,259.5 267.5,255.5 Z"/></g>
<g><path style="opacity:0.102" fill="#8e8c9a" d="M 90.5,264.5 C 89.713,266.104 88.3797,266.771 86.5,266.5C 87.5137,265.326 88.847,264.66 90.5,264.5 Z"/></g>
<g><path style="opacity:0.357" fill="#71717d" d="M 437.5,271.5 C 433.102,271.294 428.768,271.627 424.5,272.5C 424.611,271.883 424.944,271.383 425.5,271C 429.689,270.188 433.689,270.355 437.5,271.5 Z"/></g>
<g><path style="opacity:0.992" fill="#545363" d="M 381.5,268.5 C 380.189,271.811 377.855,274.145 374.5,275.5C 374.423,274.25 373.756,273.417 372.5,273C 376.79,273.564 378.957,271.731 379,267.5C 379.671,268.252 380.504,268.586 381.5,268.5 Z"/></g>
<g><path style="opacity:1" fill="#181d36" d="M 437.5,271.5 C 445.83,276.158 448.163,282.825 444.5,291.5C 443.778,291.918 443.278,292.584 443,293.5C 442.667,293.167 442.333,292.833 442,292.5C 440.574,297.248 439.408,302.248 438.5,307.5C 437.99,309.088 436.99,310.255 435.5,311C 436.554,312.388 436.72,313.888 436,315.5C 434.154,318.204 432.987,321.204 432.5,324.5C 431.076,326.291 429.742,328.125 428.5,330C 429.297,332.574 428.463,334.741 426,336.5C 425.667,338.167 425.333,339.833 425,341.5C 424.667,341.167 424.333,340.833 424,340.5C 422.905,342.932 421.405,345.098 419.5,347C 419.735,347.873 420.069,348.707 420.5,349.5C 418.995,350.842 418.328,352.508 418.5,354.5C 416.735,357.709 414.735,360.709 412.5,363.5C 409.205,362.176 407.872,363.509 408.5,367.5C 406.097,367.393 404.264,368.393 403,370.5C 401.409,372.927 400.575,375.593 400.5,378.5C 395.194,385.14 389.194,391.14 382.5,396.5C 381.432,395.566 380.099,395.232 378.5,395.5C 378.762,396.978 378.429,398.311 377.5,399.5C 377.167,398.833 376.833,398.167 376.5,397.5C 373.588,398.345 372.588,400.012 373.5,402.5C 371.711,404.033 369.711,405.033 367.5,405.5C 367.5,406.5 367.5,407.5 367.5,408.5C 366.833,408.5 366.5,408.833 366.5,409.5C 364.856,409.714 363.356,409.38 362,408.5C 361.517,409.448 361.351,410.448 361.5,411.5C 358.5,411.167 357.167,412.5 357.5,415.5C 344.98,423.425 331.647,429.759 317.5,434.5C 313.896,434.049 310.896,435.049 308.5,437.5C 307.432,438.434 306.099,438.768 304.5,438.5C 302.102,438.259 300.102,438.926 298.5,440.5C 250.031,451.672 203.698,446.005 159.5,423.5C 159.027,422.094 158.027,421.427 156.5,421.5C 153.008,420.59 150.008,418.924 147.5,416.5C 147.027,415.094 146.027,414.427 144.5,414.5C 143.595,413.298 143.595,411.964 144.5,410.5C 146.117,411.038 147.784,411.371 149.5,411.5C 149.351,407.678 147.351,405.345 143.5,404.5C 148.467,403.338 153.467,403.171 158.5,404C 159.167,405 159.833,406 160.5,407C 164.331,407.835 167.831,409.335 171,411.5C 174.074,411.335 177.574,411.002 181.5,410.5C 180.975,409.808 180.308,409.308 179.5,409C 179.833,408.667 180.167,408.333 180.5,408C 178.693,406.398 176.693,405.064 174.5,404C 175.654,403.086 175.487,402.253 174,401.5C 172.887,402.76 172.72,403.927 173.5,405C 172.128,405.402 170.795,405.902 169.5,406.5C 168.264,405.754 166.93,405.421 165.5,405.5C 165.682,403.409 165.348,401.409 164.5,399.5C 165.901,398.479 167.235,397.479 168.5,396.5C 168.833,396.5 169.167,396.5 169.5,396.5C 172.833,398.167 176.167,399.833 179.5,401.5C 179.973,402.906 180.973,403.573 182.5,403.5C 183.791,403.263 184.791,403.596 185.5,404.5C 185.863,406.777 186.863,407.444 188.5,406.5C 190.179,408.104 192.179,408.771 194.5,408.5C 196.151,409.919 197.984,411.253 200,412.5C 202.027,412.014 204.193,412.014 206.5,412.5C 267.645,426.453 321.311,412.62 367.5,371C 365.536,369.549 364.203,367.716 363.5,365.5C 362.756,361.881 362.423,358.215 362.5,354.5C 365.457,352.221 368.457,349.888 371.5,347.5C 372.086,347.709 372.586,348.043 373,348.5C 377.567,345.76 382.234,344.094 387,343.5C 390.123,340.454 393.956,338.954 398.5,339C 399.339,335.143 400.339,331.309 401.5,327.5C 401.893,325.716 402.559,324.05 403.5,322.5C 404.5,322.167 405.167,321.5 405.5,320.5C 406.496,320.586 407.329,320.252 408,319.5C 408.333,317.5 408.667,315.5 409,313.5C 411.796,310.239 413.796,306.573 415,302.5C 416.043,299.243 416.543,295.91 416.5,292.5C 416.5,291.167 416.5,289.833 416.5,288.5C 418.074,285.093 419.074,281.427 419.5,277.5C 421.5,276.167 423.167,274.5 424.5,272.5C 428.768,271.627 433.102,271.294 437.5,271.5 Z"/></g>
<g><path style="opacity:0.216" fill="#81808b" d="M 424.5,272.5 C 423.167,274.5 421.5,276.167 419.5,277.5C 420.167,274.833 421.833,273.167 424.5,272.5 Z"/></g>
<g><path style="opacity:0.995" fill="#414254" d="M 374.5,275.5 C 372.1,278.903 369.1,281.57 365.5,283.5C 365.586,282.504 365.252,281.671 364.5,281C 365.253,279.513 366.086,279.346 367,280.5C 367.67,275.619 370.17,273.952 374.5,275.5 Z"/></g>
<g><path style="opacity:0.918" fill="#343445" d="M 135.5,261.5 C 136.089,265.869 136.922,270.202 138,274.5C 138.974,272.122 139.641,272.456 140,275.5C 142.69,277.027 144.857,279.027 146.5,281.5C 134.973,279.004 131.306,272.338 135.5,261.5 Z"/></g>
<g><path style="opacity:0.067" fill="#92929b" d="M 54.5,272.5 C 55.7846,275.589 56.4512,278.922 56.5,282.5C 54.9886,279.456 54.322,276.122 54.5,272.5 Z"/></g>
<g><path style="opacity:0.004" fill="#c5c5cb" d="M 293.5,279.5 C 294.5,279.833 295.167,280.5 295.5,281.5C 294.167,281.5 293.5,280.833 293.5,279.5 Z"/></g>
<g><path style="opacity:0.561" fill="#6e6e7b" d="M 419.5,277.5 C 419.074,281.427 418.074,285.093 416.5,288.5C 416.517,284.466 417.517,280.799 419.5,277.5 Z"/></g>
<g><path style="opacity:0.431" fill="#797883" d="M 234.5,290.5 C 230.479,289.375 226.479,289.375 222.5,290.5C 226.5,287.833 230.5,287.833 234.5,290.5 Z"/></g>
<g><path style="opacity:0.467" fill="#434254" d="M 311.5,294.5 C 306.776,292.471 302.776,289.471 299.5,285.5C 300.583,285.461 301.583,285.127 302.5,284.5C 302.94,285.698 303.273,286.865 303.5,288C 305.935,289.715 308.602,290.882 311.5,291.5C 311.5,292.5 311.5,293.5 311.5,294.5 Z"/></g>
<g><path style="opacity:0.125" fill="#9794a5" d="M 175.5,289.5 C 179.466,290.162 183.466,290.495 187.5,290.5C 186.207,291.158 184.707,291.492 183,291.5C 180.179,291.592 177.679,290.926 175.5,289.5 Z"/></g>
<g><path style="opacity:0.737" fill="#4b4c59" d="M 102.5,289.5 C 103.167,289.5 103.833,289.5 104.5,289.5C 99.7201,292.053 94.7201,294.387 89.5,296.5C 92.8538,292.508 97.1871,290.175 102.5,289.5 Z"/></g>
<g><path style="opacity:0.376" fill="#797986" d="M 416.5,288.5 C 416.5,289.833 416.5,291.167 416.5,292.5C 415.797,294.629 414.797,296.629 413.5,298.5C 413.899,294.884 414.899,291.55 416.5,288.5 Z"/></g>
<g><path style="opacity:0.196" fill="#a6a6ad" d="M 217.5,294.5 C 217.573,296.027 216.906,297.027 215.5,297.5C 215.427,295.973 216.094,294.973 217.5,294.5 Z"/></g>
<g><path style="opacity:0.122" fill="#85878e" d="M 311.5,294.5 C 313.027,294.427 314.027,295.094 314.5,296.5C 312.973,296.573 311.973,295.906 311.5,294.5 Z"/></g>
<g><path style="opacity:0.739" fill="#535163" d="M 351.5,294.5 C 349.163,296.396 346.496,297.73 343.5,298.5C 344.723,296.228 346.723,295.061 349.5,295C 348.304,294.346 348.304,293.846 349.5,293.5C 350.183,293.863 350.85,294.196 351.5,294.5 Z"/></g>
<g><path style="opacity:0.529" fill="#6b6b76" d="M 314.5,296.5 C 316.898,296.259 318.898,296.926 320.5,298.5C 318.102,298.741 316.102,298.074 314.5,296.5 Z"/></g>
<g><path style="opacity:1" fill="#191e37" d="M 234.5,290.5 C 235.922,290.709 237.255,291.209 238.5,292C 246.685,298.03 254.685,304.197 262.5,310.5C 262.427,312.027 263.094,313.027 264.5,313.5C 268.355,322.317 266.022,329.15 257.5,334C 253.833,334.667 250.167,334.667 246.5,334C 241.586,330.723 236.92,327.223 232.5,323.5C 232.027,322.094 231.027,321.427 229.5,321.5C 226.527,319.853 223.86,317.853 221.5,315.5C 221.167,314.5 220.5,313.833 219.5,313.5C 219.167,312.5 218.5,311.833 217.5,311.5C 216.21,310.942 215.377,309.942 215,308.5C 214.245,304.745 214.411,301.078 215.5,297.5C 216.906,297.027 217.573,296.027 217.5,294.5C 218.585,292.413 220.251,291.08 222.5,290.5C 226.479,289.375 230.479,289.375 234.5,290.5 Z"/></g>
<g><path style="opacity:0.008" fill="#bfbfc6" d="M 217.5,311.5 C 218.5,311.833 219.167,312.5 219.5,313.5C 218.167,313.5 217.5,312.833 217.5,311.5 Z"/></g>
<g><path style="opacity:0.063" fill="#b4b4bf" d="M 262.5,310.5 C 263.906,310.973 264.573,311.973 264.5,313.5C 263.094,313.027 262.427,312.027 262.5,310.5 Z"/></g>
<g><path style="opacity:0.922" fill="#595965" d="M 91.5,305.5 C 93.3459,308.54 94.6792,311.873 95.5,315.5C 92.5688,312.987 91.2355,309.653 91.5,305.5 Z"/></g>
<g><path style="opacity:0.004" fill="#c3c3cc" d="M 219.5,313.5 C 220.5,313.833 221.167,314.5 221.5,315.5C 220.167,315.5 219.5,314.833 219.5,313.5 Z"/></g>
<g><path style="opacity:0.114" fill="#9f9fac" d="M 65.5,317.5 C 67.2132,318.635 67.8799,320.302 67.5,322.5C 66.4625,321.07 65.7959,319.403 65.5,317.5 Z"/></g>
<g><path style="opacity:0.957" fill="#302f40" d="M 416.5,292.5 C 416.543,295.91 416.043,299.243 415,302.5C 413.796,306.573 411.796,310.239 409,313.5C 408.667,315.5 408.333,317.5 408,319.5C 407.329,320.252 406.496,320.586 405.5,320.5C 405.5,320.167 405.5,319.833 405.5,319.5C 408.264,312.45 410.93,305.45 413.5,298.5C 414.797,296.629 415.797,294.629 416.5,292.5 Z"/></g>
<g><path style="opacity:0.212" fill="#9e9ca4" d="M 229.5,321.5 C 231.027,321.427 232.027,322.094 232.5,323.5C 230.973,323.573 229.973,322.906 229.5,321.5 Z"/></g>
<g><path style="opacity:0.039" fill="#bcbbbf" d="M 405.5,319.5 C 405.5,319.833 405.5,320.167 405.5,320.5C 405.167,321.5 404.5,322.167 403.5,322.5C 403.427,320.973 404.094,319.973 405.5,319.5 Z"/></g>
<g><path style="opacity:0.039" fill="#bebbcc" d="M 97.5,320.5 C 98.9063,320.973 99.573,321.973 99.5,323.5C 98.0937,323.027 97.427,322.027 97.5,320.5 Z"/></g>
<g><path style="opacity:0.043" fill="#bdbdbf" d="M 99.5,324.5 C 100.906,324.973 101.573,325.973 101.5,327.5C 100.094,327.027 99.427,326.027 99.5,324.5 Z"/></g>
<g><path style="opacity:0.931" fill="#5f5c6c" d="M 302.5,333.5 C 300.143,333.337 297.81,333.503 295.5,334C 294.414,335.746 292.414,336.912 289.5,337.5C 288.833,337.833 288.167,338.167 287.5,338.5C 288.359,335.548 290.359,333.715 293.5,333C 296.696,332.195 299.696,332.362 302.5,333.5 Z"/></g>
<g><path style="opacity:0.239" fill="#9291a3" d="M 397.5,334.5 C 396.608,337.292 394.608,338.625 391.5,338.5C 393.463,337.18 395.463,335.846 397.5,334.5 Z"/></g>
<g><path style="opacity:1" fill="#181e36" d="M 302.5,333.5 C 314.137,337.83 325.803,341.83 337.5,345.5C 337.81,347.144 338.81,348.144 340.5,348.5C 345.734,354.68 345.734,361.014 340.5,367.5C 335.094,371.549 329.094,372.549 322.5,370.5C 321.22,369.069 319.553,368.402 317.5,368.5C 315.859,366.742 313.859,365.242 311.5,364C 305.071,363.452 299.738,360.785 295.5,356C 292.947,355.239 290.447,354.406 288,353.5C 287.754,350.11 287.254,346.777 286.5,343.5C 288.038,341.757 289.038,339.757 289.5,337.5C 292.414,336.912 294.414,335.746 295.5,334C 297.81,333.503 300.143,333.337 302.5,333.5 Z"/></g>
<g><path style="opacity:0.176" fill="#8e8e97" d="M 389.5,338.5 C 389.027,339.906 388.027,340.573 386.5,340.5C 386.973,339.094 387.973,338.427 389.5,338.5 Z"/></g>
<g><path style="opacity:0.878" fill="#262637" d="M 401.5,327.5 C 400.339,331.309 399.339,335.143 398.5,339C 393.956,338.954 390.123,340.454 387,343.5C 382.234,344.094 377.567,345.76 373,348.5C 372.586,348.043 372.086,347.709 371.5,347.5C 368.457,349.888 365.457,352.221 362.5,354.5C 363.134,351.357 364.8,348.857 367.5,347C 372.346,344.932 377.346,343.432 382.5,342.5C 384.027,342.573 385.027,341.906 385.5,340.5C 385.833,340.5 386.167,340.5 386.5,340.5C 388.027,340.573 389.027,339.906 389.5,338.5C 390.167,338.5 390.833,338.5 391.5,338.5C 394.608,338.625 396.608,337.292 397.5,334.5C 398.079,331.669 399.412,329.336 401.5,327.5 Z"/></g>
<g><path style="opacity:0.122" fill="#99999f" d="M 107.5,338.5 C 108.906,338.973 109.573,339.973 109.5,341.5C 108.094,341.027 107.427,340.027 107.5,338.5 Z"/></g>
<g><path style="opacity:0.275" fill="#80868e" d="M 385.5,340.5 C 385.027,341.906 384.027,342.573 382.5,342.5C 382.973,341.094 383.973,340.427 385.5,340.5 Z"/></g>
<g><path style="opacity:0.89" fill="#414151" d="M 444.5,291.5 C 440.119,314.321 431.452,335.321 418.5,354.5C 418.328,352.508 418.995,350.842 420.5,349.5C 420.069,348.707 419.735,347.873 419.5,347C 421.405,345.098 422.905,342.932 424,340.5C 424.333,340.833 424.667,341.167 425,341.5C 425.333,339.833 425.667,338.167 426,336.5C 428.463,334.741 429.297,332.574 428.5,330C 429.742,328.125 431.076,326.291 432.5,324.5C 432.987,321.204 434.154,318.204 436,315.5C 436.72,313.888 436.554,312.388 435.5,311C 436.99,310.255 437.99,309.088 438.5,307.5C 439.408,302.248 440.574,297.248 442,292.5C 442.333,292.833 442.667,293.167 443,293.5C 443.278,292.584 443.778,291.918 444.5,291.5 Z"/></g>
<g><path style="opacity:0.184" fill="#9999a2" d="M 109.5,341.5 C 110.906,341.973 111.573,342.973 111.5,344.5C 110.094,344.027 109.427,343.027 109.5,341.5 Z"/></g>
<g><path style="opacity:0.11" fill="#9696a1" d="M 111.5,344.5 C 112.906,344.973 113.573,345.973 113.5,347.5C 112.094,347.027 111.427,346.027 111.5,344.5 Z"/></g>
<g><path style="opacity:0.086" fill="#8e8e98" d="M 337.5,345.5 C 339.19,345.856 340.19,346.856 340.5,348.5C 338.81,348.144 337.81,347.144 337.5,345.5 Z"/></g>
<g><path style="opacity:0.176" fill="#93919b" d="M 284.5,345.5 C 285.15,347.435 285.483,349.435 285.5,351.5C 283.849,349.598 283.516,347.598 284.5,345.5 Z"/></g>
<g><path style="opacity:0.157" fill="#87858f" d="M 289.5,357.5 C 291.027,357.427 292.027,358.094 292.5,359.5C 290.973,359.573 289.973,358.906 289.5,357.5 Z"/></g>
<g><path style="opacity:0.075" fill="#c3c3cb" d="M 362.5,354.5 C 362.423,358.215 362.756,361.881 363.5,365.5C 362.003,363.71 361.336,361.544 361.5,359C 361.508,357.293 361.842,355.793 362.5,354.5 Z"/></g>
<g><path style="opacity:0.165" fill="#b0b1b7" d="M 127.5,363.5 C 130.903,365.9 133.57,368.9 135.5,372.5C 132.097,370.1 129.43,367.1 127.5,363.5 Z"/></g>
<g><path style="opacity:0.976" fill="#2d2e40" d="M 289.5,337.5 C 289.038,339.757 288.038,341.757 286.5,343.5C 287.254,346.777 287.754,350.11 288,353.5C 290.447,354.406 292.947,355.239 295.5,356C 299.738,360.785 305.071,363.452 311.5,364C 313.859,365.242 315.859,366.742 317.5,368.5C 308.587,366.864 300.254,363.864 292.5,359.5C 292.027,358.094 291.027,357.427 289.5,357.5C 287.018,356.337 285.684,354.337 285.5,351.5C 285.483,349.435 285.15,347.435 284.5,345.5C 284.552,342.654 285.552,340.32 287.5,338.5C 288.167,338.167 288.833,337.833 289.5,337.5 Z"/></g>
<g><path style="opacity:0.004" fill="#b5b4bd" d="M 91.5,365.5 C 93.1436,365.81 94.1436,366.81 94.5,368.5C 92.8564,368.19 91.8564,367.19 91.5,365.5 Z"/></g>
<g><path style="opacity:0.02" fill="#b8b8c0" d="M 317.5,368.5 C 319.553,368.402 321.22,369.069 322.5,370.5C 320.447,370.598 318.78,369.931 317.5,368.5 Z"/></g>
<g><path style="opacity:0.996" fill="#3d3c4d" d="M 412.5,363.5 C 409.229,369.102 405.229,374.102 400.5,378.5C 400.575,375.593 401.409,372.927 403,370.5C 404.264,368.393 406.097,367.393 408.5,367.5C 407.872,363.509 409.205,362.176 412.5,363.5 Z"/></g>
<g><path style="opacity:0.008" fill="#b5b8bd" d="M 115.5,391.5 C 116.5,391.833 117.167,392.5 117.5,393.5C 116.167,393.5 115.5,392.833 115.5,391.5 Z"/></g>
<g><path style="opacity:0.941" fill="#3e3e4e" d="M 141.5,377.5 C 148.871,382.845 156.205,388.179 163.5,393.5C 161.847,392.395 160.18,392.229 158.5,393C 155.916,389.032 152.249,386.532 147.5,385.5C 146.141,383.308 144.308,381.641 142,380.5C 141.517,379.552 141.351,378.552 141.5,377.5 Z"/></g>
<g><path style="opacity:0.004" fill="#bbbbbe" d="M 117.5,393.5 C 118.5,393.833 119.167,394.5 119.5,395.5C 118.167,395.5 117.5,394.833 117.5,393.5 Z"/></g>
<g><path style="opacity:0.294" fill="#7c7c8a" d="M 163.5,393.5 C 165.819,393.992 167.819,394.992 169.5,396.5C 169.167,396.5 168.833,396.5 168.5,396.5C 167.153,395.829 165.986,395.829 165,396.5C 164.487,395.473 163.987,394.473 163.5,393.5 Z"/></g>
<g><path style="opacity:0.999" fill="#3d3d4d" d="M 382.5,396.5 C 377.813,400.85 372.813,404.85 367.5,408.5C 367.5,407.5 367.5,406.5 367.5,405.5C 369.711,405.033 371.711,404.033 373.5,402.5C 372.588,400.012 373.588,398.345 376.5,397.5C 376.833,398.167 377.167,398.833 377.5,399.5C 378.429,398.311 378.762,396.978 378.5,395.5C 380.099,395.232 381.432,395.566 382.5,396.5 Z"/></g>
<g><path style="opacity:0.031" fill="#adadc0" d="M 179.5,401.5 C 181.027,401.427 182.027,402.094 182.5,403.5C 180.973,403.573 179.973,402.906 179.5,401.5 Z"/></g>
<g><path style="opacity:0.688" fill="#555461" d="M 185.5,404.5 C 188.912,405.075 191.912,406.408 194.5,408.5C 192.179,408.771 190.179,408.104 188.5,406.5C 186.863,407.444 185.863,406.777 185.5,404.5 Z"/></g>
<g><path style="opacity:0.973" fill="#37384a" d="M 120.5,396.5 C 123.956,398.606 127.622,400.44 131.5,402C 132.167,403.333 132.833,404.667 133.5,406C 137.084,407.623 140.75,409.123 144.5,410.5C 143.595,411.964 143.595,413.298 144.5,414.5C 135.646,409.647 127.646,403.647 120.5,396.5 Z"/></g>
<g><path style="opacity:0.839" fill="#504f5e" d="M 194.5,408.5 C 198.767,409.256 202.767,410.589 206.5,412.5C 204.193,412.014 202.027,412.014 200,412.5C 197.984,411.253 196.151,409.919 194.5,408.5 Z"/></g>
<g><path style="opacity:0.6" fill="#4c4b57" d="M 366.5,409.5 C 363.523,411.467 360.523,413.467 357.5,415.5C 357.167,412.5 358.5,411.167 361.5,411.5C 361.351,410.448 361.517,409.448 362,408.5C 363.356,409.38 364.856,409.714 366.5,409.5 Z"/></g>
<g><path style="opacity:0.075" fill="#a2a0af" d="M 144.5,414.5 C 146.027,414.427 147.027,415.094 147.5,416.5C 145.973,416.573 144.973,415.906 144.5,414.5 Z"/></g>
<g><path style="opacity:0.059" fill="#9d9da0" d="M 156.5,421.5 C 158.027,421.427 159.027,422.094 159.5,423.5C 157.973,423.573 156.973,422.906 156.5,421.5 Z"/></g>
<g><path style="opacity:0.882" fill="#53515e" d="M 317.5,434.5 C 314.785,436.072 311.785,437.072 308.5,437.5C 310.896,435.049 313.896,434.049 317.5,434.5 Z"/></g>
<g><path style="opacity:0.137" fill="#a3a3ad" d="M 304.5,438.5 C 302.786,439.738 300.786,440.405 298.5,440.5C 300.102,438.926 302.102,438.259 304.5,438.5 Z"/></g>
</svg>
